<?xml version="1.0" encoding="UTF-8"?>
<svg id="uuid-9dc7e822-78bb-4806-ba10-12ae1926897c" data-name="Capa_2" xmlns="http://www.w3.org/2000/svg" viewBox="0 0 551.51 196.96">
  <g id="uuid-023ae231-711f-4b2a-932d-e9db430a36a6" data-name="uuid-2022fe6b-5543-45a8-8f32-5191079a6b9d">
    <g id="uuid-cc52ca27-1ef2-4b4e-899d-c5b7a8abcb46" data-name="uuid-69d1faa7-1f40-44a3-9dd2-a4ffdc580ff6">
      <g>
        <path d="M136.92,19.44c.98-5.6,3.48-10.24,7.52-13.92C148.48,1.84,153.29,0,158.89,0,169.05,0,176.53,5.53,181.35,16.6l18.75,43.07,21.78-46.88c3.91-8.53,10.51-12.79,19.82-12.79l4.2.39c10.09,2.1,16.31,9.72,18.65,22.85l15.33,86.04c.26,1.43.39,3.16.39,5.18,0,6.19-2.07,11.23-6.2,15.14s-9.33,5.86-15.58,5.86c-5.67,0-10.53-1.63-14.6-4.88s-6.66-7.62-7.76-13.09l-4.76-24.28-8.21,23.37c-4.04,11.47-10.78,17.77-20.23,18.87-12.19,0-20.13-4.96-23.85-14.87l-10.17-27.01-3.15,21.09c-.91,6.12-3.16,11.03-6.74,14.74-3.91,4.04-8.86,6.05-14.86,6.05h-2.05c-.46-.07-1.3-.2-2.54-.39-5.67-.85-10.13-3.48-13.39-7.91-3.13-4.23-4.69-9.28-4.69-15.14,0-2.21.13-4.07.39-5.57l15.04-87.01h0ZM144.35,25.21l-16.02,88.67c0,8.07,4.13,12.66,12.4,13.77,3.97,0,5.96-1.33,5.96-4,0-2.02-1.33-3.03-4-3.03-4.88,0-7.32-2.05-7.32-6.15l.39-2.83,15.53-85.16c0-3.32-.91-5.27-2.73-5.86-2.21,0-3.61,1.53-4.2,4.59h0ZM151.76,10.07c-1.17,0-2.25.39-3.22,1.17-.72.72-1.14,1.66-1.27,2.83,0,2.8,1.5,4.2,4.49,4.2,2.47,0,3.71-1.4,3.71-4.2s-1.24-4-3.71-4ZM173.15,81.06l12.21,34.77c2.73,7.88,7.39,11.82,13.96,11.82,2.93,0,4.39-1.2,4.39-3.61,0-2.02-1.21-3.16-3.61-3.42-3.91,0-6.64-2.18-8.2-6.54l-12.79-36.04c-.65-1.89-2.12-2.83-4.39-2.83-1.5.2-2.25,1.21-2.25,3.03,0,.59.23,1.53.68,2.83h0ZM224.37,23.66l-19.3,42.94c0,3.2,1.07,4.79,3.22,4.79,1.76,0,3.09-1.04,4.01-3.12l18.17-41.41c.33-.52.49-1.27.49-2.25,0-1.11-.36-2.02-1.07-2.73-.52-.39-1.23-.68-2.13-.88-1.49,0-2.62.89-3.39,2.66h0ZM232.92,11.44c-2.8,0-4.2,1.3-4.2,3.9,0,2.74,1.4,4.1,4.2,4.1s4-1.37,4-4.1c0-1.13-.38-2.03-1.12-2.7-.75-.67-1.71-1.07-2.88-1.2ZM236.92,81.06l5.76,33.59c1.37,8.08,5.5,12.51,12.4,13.28,3.38,0,5.08-1.26,5.08-3.79,0-1.75-1.14-2.82-3.4-3.2-4.08-.65-6.55-3.36-7.39-8.15l-5.76-32.32c-.52-1.88-1.74-2.82-3.64-2.82-2.03,0-3.05,1.14-3.05,3.42h0Z" style="fill: #fffafc;"/>
        <path d="M344.63,27.26v82.81c0,11.13-3.58,18.75-10.74,22.85-3.39,1.95-7.13,2.93-11.23,2.93-7.36,0-13.02-2.6-16.99-7.81-3.52-4.62-5.27-10.74-5.27-18.36V27.26c0-17.77,7.42-26.66,22.27-26.66s21.97,8.89,21.97,26.66h-.01ZM308.59,24.81v84.47c0,11.59,4,17.84,12.01,18.75,3.65,0,5.47-1.27,5.47-3.81,0-2.02-1.4-3.22-4.2-3.61-4.43-.59-6.64-4.36-6.64-11.33V25.21c0-2.34-1.14-3.52-3.42-3.52-2.15,0-3.22,1.04-3.22,3.12h0ZM315.62,11.24c-2.54-.06-3.81,1.21-3.81,3.81s1.27,4,3.81,4c2.67,0,4-1.33,4-4,0-2.47-1.33-3.74-4-3.81Z" style="fill: #fffafc;"/>
        <path d="M440.89,52.26v-27.83c0-7.03,1.95-12.7,5.86-16.99,4.17-4.56,9.08-6.84,14.75-6.84,9.18,0,15.85,3.61,20.02,10.84,2.15,3.71,3.22,8.17,3.22,13.38v86.04c0,11.33-3.81,18.85-11.43,22.56-3.65,1.76-7.16,2.64-10.55,2.64-7.03,0-13.12-3.32-18.26-9.96l-33.98-43.85v29c0,10.61-3.78,18.03-11.33,22.27-3.39,1.89-6.93,2.83-10.64,2.83-8.46,0-14.81-3.91-19.04-11.72-2.08-3.84-3.12-8.43-3.12-13.77V22.47c0-8.4,3.77-14.81,11.33-19.24,3.45-2.02,7-3.03,10.64-3.03,6.64,0,12.43,3.03,17.38,9.08l35.16,42.97h0ZM374.09,24.81v84.86c0,12.24,4,18.36,12.01,18.36,3.52,0,5.27-1.46,5.27-4.39-.13-.98-1.3-1.86-3.52-2.64-2.67-.91-4.23-1.56-4.69-1.95-1.63-1.37-2.44-4.62-2.44-9.77V25.21c0-1.11-.33-2.02-.98-2.73-.65-.72-1.46-1.07-2.44-1.07-2.15,0-3.22,1.14-3.22,3.42v-.02ZM380.73,11.63c-2.28,0-3.55,1.14-3.81,3.42,0,2.67,1.27,4,3.81,4s3.61-1.33,3.61-4c0-2.28-1.21-3.42-3.61-3.42ZM412.38,71.88l40.51,50.99c2.35,2.92,5.34,4.38,8.99,4.38,2.54,0,3.81-1.27,3.81-3.81,0-1.69-.85-2.64-2.54-2.83-2.28,0-4.37-1.2-6.26-3.61l-38.94-49.14c-.85-1.1-1.79-1.65-2.84-1.65-2.28,0-3.43,1.2-3.43,3.61,0,.78.23,1.46.69,2.05h.01ZM447.92,25.6v35.25c0,3.06,1.07,4.59,3.22,4.59,2.28,0,3.42-1.66,3.42-4.98V26.08c0-3.12-1.14-4.69-3.42-4.69-2.15,0-3.22,1.4-3.22,4.2h0ZM454.17,10.85c-2.54,0-3.81,1.27-3.81,3.81,0,2.67,1.27,4,3.81,4s3.94-1.33,4-4c.06-2.54-1.27-3.81-4-3.81Z" style="fill: #fffafc;"/>
        <path d="M551.43,27.26v82.81c0,11.13-3.58,18.75-10.74,22.85-3.39,1.95-7.13,2.93-11.23,2.93-7.36,0-13.02-2.6-16.99-7.81-3.52-4.62-5.27-10.74-5.27-18.36V27.26c0-17.77,7.42-26.66,22.27-26.66s21.97,8.89,21.97,26.66h-.01ZM515.4,24.81v84.47c0,11.59,4,17.84,12.01,18.75,3.65,0,5.47-1.27,5.47-3.81,0-2.02-1.4-3.22-4.2-3.61-4.43-.59-6.64-4.36-6.64-11.33V25.21c0-2.34-1.14-3.52-3.42-3.52-2.15,0-3.22,1.04-3.22,3.12ZM522.43,11.24c-2.54-.06-3.81,1.21-3.81,3.81s1.27,4,3.81,4c2.67,0,4-1.33,4-4,0-2.47-1.33-3.74-4-3.81Z" style="fill: #fffafc;"/>
        <path d="M5.79,155.74c.88-4.69,3.56-7.03,8.06-7.03,3.84,0,6.61,1.74,8.3,5.22l7.52,15.38,8.01-15.82c1.63-3.19,4.2-4.79,7.71-4.79,4.39,0,7.01,2.2,7.86,6.59l6.2,33.5c0,2.15-.86,3.92-2.59,5.32-1.6,1.27-3.5,1.9-5.71,1.9-4.36,0-6.98-2-7.86-6.01l-1.9-8.59-3.71,9.12c-.72,1.75-1.77,3.09-3.17,4.03-1.5.97-3.14,1.46-4.93,1.46-3.84,0-6.48-1.83-7.91-5.5l-3.58-9.15-1.69,8.25c-.39,1.89-1.35,3.43-2.88,4.61-1.53,1.19-3.27,1.78-5.22,1.78-2.44,0-4.44-.76-5.98-2.29-1.55-1.53-2.32-3.5-2.32-5.91l.2-2.1,5.62-29.98h-.03Z" style="fill: #fffafc;"/>
        <path d="M73.95,149.01h13.28c7,0,10.5,2.31,10.5,6.93,0,5.05-2.86,7.57-8.59,7.57h-8.59v3.12h6.69c2.05,0,3.68.57,4.88,1.71s1.81,2.47,1.81,4c0,1.76-.67,3.14-2,4.15-1.2.94-2.7,1.42-4.49,1.42h-6.88v3.32h8.4c2.34,0,4.38.6,6.1,1.81,1.92,1.37,2.88,3.19,2.88,5.47s-.91,4.09-2.73,5.42c-1.66,1.21-3.68,1.81-6.05,1.81h-14.6c-2.57,0-4.3-.08-5.18-.24-1.86-.39-3.22-1.29-4.1-2.69-.88-1.4-1.32-3.56-1.32-6.49v-27.69c0-4.62,1.22-7.5,3.66-8.64,1.43-.65,3.55-.98,6.35-.98h-.02Z" style="fill: #fffafc;"/>
        <path d="M130.3,166.83v-9.42c0-2.47.76-4.54,2.27-6.2s3.49-2.49,5.93-2.49,4.45.8,6.03,2.39c1.58,1.6,2.37,3.63,2.37,6.1v29.3c0,6.48-2.67,9.72-8.01,9.72-2.8,0-4.96-.93-6.49-2.78l-13.28-16.11v10.01c0,2.47-.78,4.54-2.34,6.2s-3.58,2.49-6.05,2.49-4.45-.81-6.03-2.42-2.37-3.64-2.37-6.08v-30.32c0-2.57.76-4.63,2.29-6.18,1.53-1.55,3.56-2.32,6.1-2.32s4.57.77,5.91,2.29l13.67,15.82h0Z" style="fill: #fffafc;"/>
        <path d="M170.1,147.83c6.87,0,11.88,1.65,15.04,4.95,1.56,1.63,2.34,3.59,2.34,5.88,0,1.67-.67,3.07-2,4.21s-2.83,1.71-4.49,1.71c-.85,0-1.48-.07-1.9-.2-1.27-.26-3.17-1.35-5.71-3.26-.88-.66-1.71-.99-2.49-.99-1.4,0-2.1.63-2.1,1.9,0,.72.37,1.27,1.12,1.66,1.11.62,2.93,1.35,5.47,2.2,2.77.91,4.7,1.63,5.81,2.15,1.86.91,3.35,2,4.49,3.27,2.6,2.96,3.91,6.27,3.91,9.91,0,4.26-1.58,7.88-4.74,10.84-3.52,3.26-8.24,4.88-14.16,4.88-8.11,0-13.67-2.1-16.7-6.3-1.33-1.82-2-3.66-2-5.52,0-2.57,1.04-4.51,3.12-5.81,1.4-.88,2.8-1.32,4.2-1.32,1.14,0,2.27.28,3.39.83s2.34,1.3,3.64,2.25c1.92,1.37,3.37,2.05,4.35,2.05,1.33,0,2-.6,2-1.81,0-1.33-.86-2.28-2.59-2.83-4.49-1.4-7.67-2.57-9.52-3.52-2.28-1.11-4.01-2.47-5.2-4.1s-1.95-3.81-2.27-6.54c0-6.35,2.6-11.02,7.81-14.01,2.86-1.66,5.92-2.49,9.18-2.49h0Z" style="fill: #fffafc;"/>
        <path d="M202.08,149.01h19.24c3.68,0,6.33.34,7.96,1.03,2.6,1.04,3.91,3.11,3.91,6.2,0,2.34-.9,4.18-2.69,5.52-1.63,1.17-3.66,1.76-6.1,1.76h-4.1v23.44c0,2.57-.73,4.7-2.2,6.4-1.53,1.79-3.56,2.69-6.1,2.69s-4.39-.78-5.96-2.34-2.34-3.55-2.34-5.96v-24.22h-4.69c-2.38,0-4.3-.68-5.76-2.05-1.56-1.4-2.34-3.27-2.34-5.62,0-4.56,3.73-6.84,11.18-6.84h-.01Z" style="fill: #fffafc;"/>
        <path d="M273.83,184.02l-4.1-6.3c3.58-3.48,5.37-7.49,5.37-12.01,0-2.87-.78-5.6-2.34-8.21-3.45-5.66-8.56-8.49-15.34-8.49h-11.52c-6.12,0-9.18,2.67-9.18,8.02v29.56c0,2.8.69,5.07,2.06,6.8,1.54,1.89,3.67,2.84,6.39,2.84,5.5,0,8.25-2.91,8.25-8.74v-5.29l6.59,10.22c1.63,2.54,3.92,3.81,6.89,3.81,2.24,0,4.2-.71,5.88-2.13,1.68-1.41,2.52-3.21,2.52-5.39,0-1.63-.49-3.19-1.47-4.69h0ZM254.57,168.44h-1.15v-5.12h1.78c2.39,0,3.59.83,3.59,2.49,0,1.75-1.41,2.63-4.22,2.63h0Z" style="fill: #fffafc;"/>
        <path d="M280.13,157.84c0-6.15,2.73-9.23,8.2-9.23,2.41,0,4.38.85,5.91,2.56,1.53,1.71,2.29,3.78,2.29,6.23v18.99c0,1.69.45,2.99,1.34,3.88.9.9,1.98,1.34,3.25,1.34s2.36-.46,3.17-1.39c.81-.92,1.22-2.05,1.22-3.38v-19.57c0-2.5.73-4.57,2.2-6.21s3.43-2.46,5.91-2.46,4.47.8,6.08,2.41,2.42,3.63,2.42,6.07v18.96c0,8.38-3.42,14.44-10.25,18.18-3.35,1.82-6.51,2.73-9.47,2.73-4.33,0-8.33-1.03-12.01-3.08-3.87-2.15-6.71-5.09-8.5-8.84-1.17-2.44-1.76-5.08-1.76-7.91v-19.29h0Z" style="fill: #fffafc;"/>
        <path d="M371.83,184.4l-15.82-31.14c-1.66-3.26-4.27-4.89-7.81-4.89s-6.04,1.65-7.67,4.94l-15.43,30.9c-.75,1.5-1.12,2.87-1.12,4.11,0,1.46.4,2.78,1.22,3.95,1.69,2.51,4.03,3.76,7.03,3.76,4,0,6.84-2.2,8.5-6.59h15.28c1.85,4.39,4.72,6.59,8.59,6.59,1.37,0,2.7-.34,4.01-1.03,2.8-1.43,4.2-3.66,4.2-6.69,0-1.34-.33-2.64-.98-3.91h0ZM345.8,178.31l2.5-5.58,2.66,5.58h-5.16Z" style="fill: #fffafc;"/>
        <path d="M399.44,147.74c6.8,0,12.76,1.9,17.87,5.71,2.34,1.76,4.05,3.68,5.13,5.76.62,1.21.93,2.41.93,3.61,0,2.15-.84,3.99-2.51,5.52-1.68,1.53-3.61,2.29-5.79,2.29s-4.25-.94-5.91-2.81c-2.7-3.04-5.68-4.56-8.94-4.56-3.91,0-6.74,1.64-8.5,4.92-.78,1.49-1.17,3.02-1.17,4.58,0,1.72.47,3.18,1.42,4.38,2.31,2.92,5.03,4.38,8.15,4.38,3.32,0,6.12-1.33,8.4-4,1.76-2.05,3.87-3.08,6.35-3.08,2.15,0,4.08.77,5.81,2.32,1.72,1.55,2.59,3.39,2.59,5.54,0,1.24-.34,2.44-1.03,3.61-2.12,3.65-5.32,6.45-9.62,8.4-3.84,1.76-8.07,2.64-12.7,2.64-5.05,0-9.77-1.35-14.16-4.05-4.49-2.77-7.78-6.41-9.86-10.94-1.37-2.93-2.05-6.01-2.05-9.23,0-4.43,1.15-8.51,3.44-12.26,2.29-3.74,5.4-6.74,9.3-8.98,4.36-2.51,8.64-3.76,12.84-3.76h.01Z" style="fill: #fffafc;"/>
        <path d="M445.02,157.84v29.49c0,2.54-.79,4.64-2.37,6.3s-3.62,2.49-6.13,2.49-4.4-.79-5.88-2.37-2.22-3.59-2.22-6.03v-30.13c0-5.86,2.86-8.79,8.59-8.79,5.34,0,8.01,3.01,8.01,9.03h0Z" style="fill: #fffafc;"/>
        <path d="M500.25,162.49c-2.74-6.03-7.36-10.32-13.87-12.9-3.13-1.23-6.51-1.85-10.16-1.85-4.75,0-9.18,1.1-13.28,3.29-4.1,2.2-7.34,5.14-9.72,8.82-2.47,3.81-3.71,7.97-3.71,12.5,0,6.77,2.48,12.53,7.42,17.28,5.05,4.89,11.41,7.33,19.1,7.33s13.96-2.56,18.94-7.67c4.82-4.95,7.23-10.8,7.23-17.58,0-3.28-.65-6.36-1.95-9.22h0ZM482.98,178.87c-1.87,1.71-4.12,2.56-6.76,2.56s-4.95-.85-6.93-2.54c-2.12-1.79-3.18-3.97-3.18-6.54,0-1.63.44-3.13,1.32-4.49,1.96-3.03,4.82-4.54,8.6-4.54,2.6,0,4.88.85,6.83,2.56,1.96,1.71,2.93,3.86,2.93,6.47s-.93,4.81-2.81,6.52h0Z" style="fill: #fffafc;"/>
        <path d="M534.91,166.83v-9.42c0-2.47.76-4.54,2.27-6.2s3.49-2.49,5.93-2.49,4.45.8,6.03,2.39c1.58,1.6,2.37,3.63,2.37,6.1v29.3c0,6.48-2.67,9.72-8.01,9.72-2.8,0-4.96-.93-6.49-2.78l-13.28-16.11v10.01c0,2.47-.78,4.54-2.34,6.2s-3.58,2.49-6.05,2.49-4.45-.81-6.03-2.42-2.37-3.64-2.37-6.08v-30.32c0-2.57.76-4.63,2.29-6.18,1.53-1.55,3.56-2.32,6.1-2.32s4.57.77,5.91,2.29l13.67,15.82h0Z" style="fill: #fffafc;"/>
        <path d="M55.34.15C26.07.15,2.34,60.13,2.34,87.12s23.73,48.88,53,48.88,53-21.89,53-48.88S84.61.15,55.34.15ZM41.49,24.48l-.15.27c-7.12,12.34-29.57,54.29-19.34,76.2,2.09,4.47,8.74,11.79,12.85,14.86,1.33.99,1.6,2.87.61,4.2-.6.8-1.53,1.22-2.46,1.2-.61-.01-1.22-.2-1.74-.6-4.87-3.64-12.1-11.57-14.7-17.13-11.14-23.86,9.98-65.11,19.58-81.74l.15-.26c.83-1.44,2.66-1.93,4.1-1.1,1.44.83,1.93,2.66,1.1,4.1ZM47.4,18.08c-2.54,0-3.81-1.4-3.81-4s1.27-3.87,3.81-3.81c2.67.07,4,1.34,4,3.81,0,2.67-1.33,4-4,4Z" style="fill: #fffafc;"/>
        <path d="M489.43,129.01c3.17-3.62,8.45-4.17,11.8-1.24,3.35,2.93,3.5,8.25.33,11.86s-12.93,9.28-16.28,6.34c-3.35-2.93.98-13.35,4.15-16.97h0Z" style="fill: #fffafc;"/>
      </g>
    </g>
  </g>
</svg>